Coordinates
version=1
nRows=9
nColumns=36
inDegrees=yes

Units are S.I. units (second, meters, Newtons, ...)
If the header above contains a line with 'inDegrees', this indicates whether rotational values are in degrees (yes) or radians (no).

endheader
time	pelvis_tilt	pelvis_list	pelvis_rotation	pelvis_tx	pelvis_ty	pelvis_tz	hip_flexion_r	hip_adduction_r	hip_rotation_r	knee_angle_r	knee_angle_r_beta	ankle_angle_r	subtalar_angle_r	mtp_angle_r	hip_flexion_l	hip_adduction_l	hip_rotation_l	knee_angle_l	knee_angle_l_beta	ankle_angle_l	subtalar_angle_l	mtp_angle_l	lumbar_extension	lumbar_bending	lumbar_rotation	arm_flex_r	arm_add_r	arm_rot_r	elbow_flex_r	pro_sup_r	arm_flex_l	arm_add_l	arm_rot_l	elbow_flex_l	pro_sup_l
      0.00000000	     -5.40811873	      0.23430816	      7.88782130	     -0.10249290	      0.89715157	     -0.24887424	     35.43459252	     -5.25856031	     -4.96938882	     12.50589337	      0.21826902	     -0.15362531	     -7.83447418	     -4.96190788	    -13.46516299	      0.78982269	      1.74916581	     11.49751821	      0.20066955	     21.15391550	     11.34926804	     -4.96190788	     -5.14964654	      3.23555459	    -13.46956888	     -5.42360985	    -10.13882233	      2.27351842	     32.19199275	    101.68884347	      1.55718480	    -12.08831636	      0.14347218	     54.72506103	     94.74978546
      0.01000000	     -5.45297426	     -0.32603258	      7.90421944	     -0.08926935	      0.89546495	     -0.24846541	     35.59835296	     -4.60042763	     -4.57498072	     13.75163132	      0.24001124	     -2.03080493	     -8.56663852	     -4.99974045	    -13.62065602	      0.05277619	      1.79869566	     12.63466591	      0.22051652	     20.70650477	     10.76947182	     -4.99974045	     -4.83956958	      4.49257939	    -13.66627198	     -5.38572554	    -10.29552925	      2.10794865	     31.90881119	    101.97021008	      0.92587687	    -11.50692608	     -0.17835101	     53.88225673	     94.96289630
      0.02000000	     -5.32892582	     -0.83362429	      7.81550758	     -0.07605397	      0.89409138	     -0.24784528	     35.58295657	     -3.88010242	     -3.79278695	     15.08188793	      0.26322860	     -3.06804065	     -8.76792741	     -5.01076050	    -14.10771562	     -0.59300170	      2.28683604	     13.50802756	      0.23575956	     20.22331449	     10.57460444	     -5.01076050	     -4.79342635	      5.70924859	    -13.74751410	     -5.32139360	    -10.42861676	      1.97087919	     31.74962734	    102.02030522	      0.31029143	    -11.08705845	     -0.20097755	     53.33123667	     94.99700505
      0.03000000	     -5.36987749	     -1.67674844	      7.70113091	     -0.06277524	      0.89284169	     -0.24695103	     35.63541406	     -2.65409023	     -2.58811892	     16.05863417	      0.28027604	     -7.21945024	    -13.24301772	     -5.19511233	    -14.09828934	     -1.57318140	      2.34576139	     14.88827313	      0.25984939	     19.04607239	      8.82720754	     -5.19511233	     -4.45849265	      7.24752805	    -13.80212702	     -5.23155267	    -10.48133159	      1.19351207	     31.34987323	    102.97397520	     -0.21010867	    -10.32158442	     -0.88709798	     51.98984584	     96.31612254
      0.04000000	     -5.23495561	     -2.39239480	      7.51519234	     -0.04946357	      0.89202948	     -0.24628305	     35.76991229	     -1.70430535	     -2.15592332	     17.82456096	      0.31109728	     -7.89887845	    -13.86858261	     -5.22619512	    -14.24382736	     -2.40180685	      2.46620200	     16.35723559	      0.28548762	     18.06737870	      8.06531642	     -5.22619512	     -4.41582118	      8.73791127	    -13.73435224	     -5.12280168	    -10.70091019	      0.96541922	     31.08542972	    103.05076133	     -0.64911215	     -9.64868288	     -1.17271069	     50.82284586	     96.38528763
      0.05000000	     -5.16338530	     -3.14279781	      7.25676637	     -0.03618046	      0.89161416	     -0.24542320	     35.90129411	     -0.59887502	     -1.39792696	     19.50703912	      0.34046206	     -9.22189326	    -15.70756542	     -5.30796064	    -14.24047711	     -3.16448307	      2.88421445	     17.93471990	      0.31301991	     16.49445833	      6.28308981	     -5.30796064	     -4.31720334	     10.19628729	    -13.56237202	     -4.99335277	    -10.83736016	      0.54027290	     30.86789040	    103.25017558	     -0.94689526	     -8.83271232	     -1.52020121	     49.31905909	     96.76558592
      0.06000000	     -4.83762424	     -3.87902823	      6.96124970	     -0.02288059	      0.89179231	     -0.24450247	     35.78085796	      0.49228515	     -1.01778377	     21.33994551	      0.37245231	     -9.18578378	    -16.43582608	     -5.33203079	    -14.33203081	     -3.96778823	      2.98998687	     19.82569941	      0.34602373	     15.04866705	      5.43723095	     -5.33203079	     -4.60960125	     11.70999734	    -13.39617066	     -4.75057805	    -11.07817979	      0.39081824	     30.70423219	    103.28494891	     -1.35705911	     -8.21878222	     -1.64739570	     48.22146115	     96.79714469
      0.07000000	     -4.70419389	     -4.50025414	      6.65468653	     -0.00968271	      0.89221763	     -0.24348805	     35.73578900	      1.49989667	     -0.54445347	     22.96586625	      0.40082998	     -9.55291983	    -17.81161749	     -5.45305656	    -14.08039546	     -4.50415824	      3.56028164	     21.89579144	      0.38215365	     12.62273417	      2.87421477	     -5.45305656	     -4.67480301	     13.00287659	    -13.11702163	     -4.57754950	    -11.25573875	      0.03798555	     30.49623888	    103.50255545	     -1.54905301	     -7.48058484	     -1.69383680	     46.46005804	     97.37281382
      0.08000000	     -4.37772679	     -5.06415606	      6.37298763	      0.00338657	      0.89308496	     -0.24221402	     35.39712498	      2.44997660	     -0.39449655	     24.47454175	      0.42716134	     -9.01394296	    -18.39899646	     -5.47359778	    -13.74793775	     -5.12913588	      3.58958626	     24.43246156	      0.42642690	     10.88512672	      2.15283900	     -5.47359778	     -5.06636960	     14.19745976	    -12.95832046	     -4.24087988	    -11.37045733	     -0.02105471	     30.31659224	    103.52252332	     -1.91806519	     -6.93293401	     -1.77533343	     45.23841024	     97.35207988
